<?xml version="1.0" standalone="no"?>
<!DOCTYPE svg PUBLIC "-//W3C//DTD SVG 20010904//EN"
 "http://www.w3.org/TR/2001/REC-SVG-20010904/DTD/svg10.dtd">
<svg version="1.0" xmlns="http://www.w3.org/2000/svg"
 width="31205.000000pt" height="354.000000pt" viewBox="0 0 31205.000000 354.000000"
 preserveAspectRatio="xMidYMid meet">

<g transform="translate(0.000000,354.000000) scale(0.100000,-0.100000)"
fill="#000000" stroke="none">
<path d="M8485 3524 c-716 -82 -1397 -330 -1987 -726 -251 -167 -387 -280
-678 -562 -118 -114 -258 -244 -310 -288 -481 -404 -1054 -660 -1680 -748 -41
-6 -160 -17 -265 -25 -511 -36 -1085 71 -1565 290 -369 169 -640 359 -992 693
-152 143 -234 185 -398 198 -218 17 -440 -107 -535 -299 -83 -169 -84 -350 -3
-514 53 -109 248 -306 511 -518 847 -682 1918 -1030 3002 -975 644 33 1221
183 1779 462 447 224 767 454 1156 833 307 300 413 389 640 538 248 163 478
274 762 369 603 201 1232 228 1846 78 387 -94 737 -251 1072 -478 187 -127
294 -217 525 -442 116 -113 258 -246 316 -296 520 -447 1152 -773 1819 -937
219 -54 303 -70 511 -97 873 -111 1743 33 2534 420 462 226 797 469 1230 890
121 118 254 242 295 276 467 380 982 614 1565 713 418 71 813 62 1250 -30 448
-93 896 -295 1270 -574 156 -116 233 -183 465 -410 334 -326 565 -506 917
-714 149 -88 445 -232 608 -296 382 -150 796 -250 1210 -291 205 -20 620 -22
815 -5 681 61 1323 268 1901 613 313 187 547 369 840 654 333 323 463 431 699
582 478 306 987 469 1600 513 568 40 1237 -110 1754 -392 321 -176 543 -346
851 -653 391 -390 759 -656 1220 -880 495 -242 1020 -388 1575 -437 171 -15
597 -15 760 0 838 78 1584 356 2250 840 175 126 334 265 562 488 350 342 587
517 933 690 503 252 1134 382 1670 344 484 -35 891 -144 1295 -346 343 -171
569 -338 924 -684 236 -230 351 -330 533 -467 583 -437 1293 -731 2013 -833
240 -34 383 -44 645 -44 416 0 749 41 1125 139 764 199 1447 587 2003 1137
305 301 425 403 652 553 497 328 1014 499 1640 545 640 46 1371 -140 1928
-489 260 -163 395 -273 691 -562 236 -230 390 -362 587 -503 528 -376 1135
-632 1781 -751 194 -36 352 -54 578 -67 107 -6 198 -16 201 -21 12 -18 445 9
679 43 456 65 888 200 1315 409 453 222 816 483 1196 860 103 102 197 194 210
205 275 236 484 378 739 506 612 305 1273 415 1945 323 552 -76 1077 -290
1520 -619 156 -116 233 -183 465 -410 334 -326 565 -506 917 -714 149 -88 445
-232 608 -296 382 -150 796 -250 1210 -291 205 -20 620 -22 815 -5 681 61
1323 268 1901 613 325 195 552 373 881 693 263 256 275 266 437 389 530 402
1116 616 1821 667 568 40 1237 -110 1754 -392 321 -176 543 -346 851 -653 391
-390 759 -656 1220 -880 495 -242 1020 -388 1575 -437 171 -15 597 -15 760 0
758 70 1444 306 2060 708 255 167 531 394 740 609 442 454 929 752 1503 918
620 180 1281 174 1900 -15 399 -123 770 -320 1100 -585 60 -47 209 -184 331
-303 236 -230 351 -330 533 -467 582 -437 1290 -730 2013 -833 592 -85 1207
-52 1770 95 486 127 945 333 1355 607 255 170 460 341 695 578 233 235 381
358 615 512 635 417 1383 601 2145 526 467 -46 944 -200 1337 -430 281 -166
534 -367 724 -574 105 -116 252 -251 412 -380 1091 -879 2535 -1191 3906 -844
458 116 934 325 1316 578 55 36 103 70 106 74 3 5 9 8 13 7 6 -2 65 41 123 90
7 5 15 10 19 10 6 0 63 43 114 87 148 125 285 252 415 383 169 171 278 268
437 386 406 302 935 517 1465 593 359 52 674 49 1031 -10 473 -78 910 -254
1312 -527 187 -127 294 -217 525 -442 292 -284 451 -418 700 -592 224 -155
593 -350 875 -461 1181 -469 2511 -412 3644 155 447 224 767 454 1156 833 307
300 413 389 640 538 416 273 885 448 1373 512 618 81 1218 -7 1792 -261 284
-125 611 -336 830 -535 39 -35 64 -55 56 -44 -8 11 69 -64 170 -167 101 -103
227 -224 279 -269 1123 -958 2624 -1302 4055 -929 624 162 1206 462 1714 882
68 56 228 204 356 328 335 325 562 495 885 659 954 487 2062 487 3021 0 238
-121 523 -321 723 -508 27 -25 46 -39 41 -31 -4 8 24 -19 62 -60 630 -689
1513 -1173 2453 -1344 1012 -184 2081 -13 2952 471 396 220 650 410 990 740
334 323 482 446 718 594 679 426 1510 591 2300 458 486 -82 959 -275 1346
-550 188 -134 271 -206 539 -468 105 -102 235 -224 290 -270 1192 -997 2803
-1308 4280 -826 347 113 724 294 1030 492 273 178 471 340 767 630 214 209
375 346 533 455 811 559 1849 727 2795 452 474 -138 933 -392 1280 -710 41
-38 66 -57 55 -44 -10 14 71 -66 180 -177 327 -330 571 -517 960 -737 370
-210 725 -352 1124 -451 1365 -337 2794 -25 3881 849 166 133 175 141 395 358
215 212 265 256 420 373 444 337 966 554 1520 634 395 57 773 45 1160 -35 409
-86 792 -245 1142 -476 220 -145 332 -239 623 -523 392 -384 723 -623 1169
-845 480 -240 981 -385 1536 -446 219 -24 698 -24 913 -1 552 62 1060 208
1531 442 456 226 778 457 1171 840 307 300 413 389 640 538 416 273 885 448
1373 512 618 81 1218 -7 1792 -261 284 -125 611 -336 830 -535 39 -35 64 -55
56 -44 -8 11 69 -64 170 -167 259 -265 457 -429 734 -610 606 -398 1273 -634
2015 -715 186 -20 617 -22 820 -4 681 61 1323 268 1901 613 313 187 547 369
840 654 333 323 463 431 699 582 478 306 987 469 1600 513 568 40 1237 -110
1754 -392 321 -176 543 -346 851 -653 391 -390 759 -656 1220 -880 495 -242
1020 -388 1575 -437 171 -15 597 -15 760 0 838 78 1584 356 2250 840 175 126
334 265 562 488 350 342 587 517 933 690 503 252 1134 382 1670 344 484 -35
891 -144 1295 -346 343 -171 569 -338 924 -684 236 -230 351 -330 533 -467
582 -437 1290 -730 2013 -833 592 -85 1207 -52 1770 95 764 200 1447 587 2003
1137 305 301 425 403 652 553 851 561 1893 701 2862 383 308 -101 547 -218
818 -399 191 -129 429 -328 468 -393 48 -78 272 -295 480 -462 847 -682 1918
-1030 3002 -975 644 33 1221 183 1779 462 447 224 767 454 1156 833 307 300
413 389 640 538 248 163 478 274 762 369 603 201 1232 228 1846 78 387 -94
737 -251 1072 -478 187 -127 294 -217 525 -442 116 -113 258 -246 316 -296
520 -447 1152 -773 1819 -937 219 -54 303 -70 511 -97 873 -111 1743 33 2534
420 462 226 797 469 1230 890 121 118 254 242 295 276 467 380 982 614 1565
713 418 71 813 62 1250 -30 448 -93 896 -295 1270 -574 156 -116 233 -183 465
-410 334 -326 565 -506 917 -714 149 -88 445 -232 608 -296 382 -150 796 -250
1210 -291 205 -20 620 -22 815 -5 681 61 1323 268 1901 613 313 187 547 369
840 654 333 323 463 431 699 582 478 306 987 469 1600 513 568 40 1237 -110
1754 -392 321 -176 543 -346 851 -653 391 -390 759 -656 1220 -880 495 -242
1020 -388 1575 -437 171 -15 597 -15 760 0 838 78 1584 356 2250 840 175 126
334 265 562 488 350 342 587 517 933 690 503 252 1134 382 1670 344 484 -35
891 -144 1295 -346 343 -171 569 -338 924 -684 236 -230 351 -330 533 -467
583 -437 1293 -731 2013 -833 240 -34 383 -44 645 -44 416 0 749 41 1125 139
764 199 1447 587 2003 1137 305 301 425 403 652 553 497 328 1014 499 1640
545 640 46 1371 -140 1928 -489 260 -163 395 -273 691 -562 379 -370 663 -583
1069 -802 1257 -677 2810 -701 4099 -62 452 225 776 457 1168 839 307 300 413
389 640 538 248 163 478 274 762 369 603 201 1232 228 1846 78 387 -94 737
-251 1072 -478 187 -127 294 -217 525 -442 116 -113 258 -246 316 -296 520
-447 1152 -773 1819 -937 219 -54 303 -70 511 -97 873 -111 1743 33 2534 420
462 226 797 469 1230 890 121 118 254 242 295 276 467 380 982 614 1565 713
418 71 813 62 1250 -30 448 -93 896 -295 1270 -574 156 -116 233 -183 465
-410 334 -326 565 -506 917 -714 149 -88 445 -232 608 -296 382 -150 796 -250
1210 -291 205 -20 620 -22 815 -5 681 61 1323 268 1901 613 313 187 547 369
840 654 333 323 463 431 699 582 478 306 987 469 1600 513 568 40 1237 -110
1754 -392 321 -176 543 -346 851 -653 391 -390 759 -656 1220 -880 495 -242
1020 -388 1575 -437 171 -15 597 -15 760 0 838 78 1584 356 2250 840 175 126
334 265 562 488 284 277 463 420 713 570 402 242 861 395 1350 450 229 26 652
19 808 -13 l27 -6 0 570 0 569 -77 7 c-176 15 -525 18 -693 7 -606 -41 -1144
-185 -1685 -451 -315 -155 -548 -303 -814 -516 -137 -110 -405 -354 -420 -383
-13 -24 -245 -233 -352 -317 -445 -350 -985 -582 -1559 -670 -127 -19 -482
-44 -550 -39 -30 3 -118 10 -195 15 -668 49 -1296 298 -1827 724 -58 47 -205
182 -325 298 -239 233 -351 332 -518 458 -604 454 -1334 753 -2075 849 -1032
135 -2036 -74 -2916 -606 -306 -185 -530 -363 -858 -681 -126 -123 -285 -268
-352 -322 -211 -170 -470 -330 -704 -435 -630 -284 -1334 -366 -2010 -234
-618 120 -1152 395 -1642 842 -65 59 -128 122 -142 140 -32 42 -264 254 -386
353 -245 199 -532 380 -835 529 -479 235 -935 367 -1490 431 -186 22 -718 25
-895 6 -783 -86 -1462 -330 -2080 -750 -245 -166 -417 -311 -712 -599 -270
-264 -438 -397 -693 -550 -388 -233 -872 -396 -1315 -442 -300 -32 -460 -32
-760 0 -452 47 -937 212 -1335 454 -251 153 -408 279 -690 555 -223 218 -365
343 -529 465 -667 494 -1408 780 -2246 867 -187 19 -706 16 -895 -6 -753 -87
-1417 -330 -2023 -738 -250 -169 -370 -269 -801 -671 -227 -212 -403 -347
-622 -479 -646 -389 -1424 -543 -2178 -432 -648 95 -1243 378 -1735 823 -55
49 -104 87 -109 84 -6 -3 -7 -1 -4 4 4 6 -27 42 -68 79 -42 38 -117 107 -168
154 -433 399 -881 681 -1417 893 -364 144 -727 233 -1155 283 -210 25 -737 25
-949 0 -739 -86 -1398 -324 -1991 -719 -263 -176 -436 -319 -735 -612 -113
-110 -239 -227 -280 -261 -447 -364 -926 -592 -1464 -699 -438 -86 -845 -89
-1271 -9 -449 85 -860 253 -1235 504 -168 113 -316 238 -543 458 -317 308
-505 463 -771 637 -1203 787 -2724 943 -4071 418 -77 -30 -230 -99 -340 -153
-315 -155 -548 -303 -814 -516 -137 -110 -405 -354 -420 -383 -13 -24 -245
-233 -352 -317 -445 -350 -985 -582 -1559 -670 -127 -19 -482 -44 -550 -39
-30 3 -118 10 -195 15 -668 49 -1296 298 -1827 724 -58 47 -205 182 -325 298
-239 233 -351 332 -518 458 -604 454 -1334 753 -2075 849 -1032 135 -2036 -74
-2916 -606 -306 -185 -530 -363 -858 -681 -126 -123 -285 -268 -352 -322 -211
-170 -470 -330 -704 -435 -630 -284 -1334 -366 -2010 -234 -618 120 -1152 395
-1642 842 -65 59 -128 122 -142 140 -32 42 -264 254 -386 353 -245 199 -532
380 -835 529 -479 235 -935 367 -1490 431 -186 22 -718 25 -895 6 -783 -86
-1462 -330 -2080 -750 -245 -166 -417 -311 -712 -599 -270 -264 -438 -397
-693 -550 -388 -233 -872 -396 -1315 -442 -300 -32 -460 -32 -760 0 -452 47
-937 212 -1335 454 -251 153 -408 279 -690 555 -223 218 -365 343 -529 465
-667 494 -1408 780 -2246 867 -187 19 -706 16 -895 -6 -753 -87 -1417 -330
-2023 -738 -238 -161 -353 -256 -657 -542 -242 -228 -316 -293 -442 -389 -464
-351 -1002 -569 -1583 -641 -154 -19 -408 -35 -475 -30 -27 2 -117 9 -200 14
-615 45 -1216 270 -1720 644 -142 106 -247 199 -485 431 -326 318 -570 505
-922 707 -532 305 -1099 489 -1743 564 -210 25 -737 25 -949 0 -739 -86 -1398
-324 -1991 -719 -263 -176 -436 -319 -735 -612 -113 -110 -239 -227 -280 -261
-447 -364 -926 -592 -1464 -699 -438 -86 -845 -89 -1271 -9 -449 85 -860 253
-1235 504 -168 113 -316 238 -543 458 -317 308 -505 463 -771 637 -1203 787
-2724 943 -4071 418 -77 -30 -230 -99 -340 -153 -315 -155 -548 -303 -814
-516 -137 -110 -405 -354 -420 -383 -13 -24 -245 -233 -352 -317 -445 -350
-985 -582 -1559 -670 -127 -19 -482 -44 -550 -39 -30 3 -118 10 -195 15 -668
49 -1296 298 -1827 724 -58 47 -205 182 -325 298 -239 233 -351 332 -518 458
-604 454 -1334 753 -2075 849 -1032 135 -2036 -74 -2916 -606 -306 -185 -530
-363 -858 -681 -329 -320 -546 -488 -841 -650 -536 -293 -1177 -437 -1775
-396 -652 45 -1230 250 -1740 618 -143 103 -256 202 -465 406 -223 218 -365
343 -529 465 -650 481 -1358 760 -2186 862 -182 22 -753 25 -925 5 -626 -73
-1107 -216 -1610 -476 -443 -230 -739 -447 -1140 -836 -337 -327 -542 -485
-840 -647 -1239 -673 -2752 -492 -3799 456 -55 49 -104 87 -109 84 -6 -3 -7
-2 -4 4 4 6 -26 40 -66 77 -39 37 -97 91 -127 120 -77 73 -259 229 -360 307
-606 471 -1345 782 -2111 888 -434 60 -940 53 -1359 -20 -727 -125 -1382 -409
-1960 -850 -162 -124 -299 -244 -495 -437 -93 -92 -161 -156 -151 -142 11 14
-7 -2 -40 -35 -32 -33 -62 -59 -66 -57 -4 1 -18 -12 -31 -28 -14 -16 -27 -27
-30 -24 -2 3 -14 -7 -26 -22 -11 -15 -21 -23 -21 -18 -1 5 -10 -2 -20 -15 -11
-13 -20 -19 -20 -15 -1 5 -10 -2 -20 -15 -11 -13 -20 -20 -20 -17 0 6 -106
-69 -120 -84 -3 -3 -27 -19 -54 -35 -27 -17 -65 -40 -85 -52 -165 -103 -415
-220 -612 -288 -1000 -345 -2080 -203 -2949 386 -182 123 -319 239 -547 461
-443 431 -756 657 -1238 895 -1245 613 -2738 605 -3975 -23 -446 -226 -782
-467 -1125 -807 -263 -261 -483 -447 -675 -569 -30 -19 -77 -49 -105 -67 -68
-43 -278 -150 -395 -199 -766 -324 -1634 -348 -2416 -66 -257 92 -473 202
-709 359 -201 134 -325 237 -572 477 -338 330 -547 498 -843 680 -576 355
-1171 560 -1870 645 -208 25 -765 25 -970 0 -630 -78 -1146 -241 -1673 -528
-407 -222 -837 -558 -1118 -874 -29 -33 -46 -51 -38 -40 8 11 -20 -11 -61 -49
-243 -224 -573 -443 -855 -569 -853 -381 -1797 -396 -2650 -43 -249 104 -566
292 -780 462 -122 98 -325 283 -359 327 -32 42 -264 254 -386 353 -650 527
-1447 858 -2318 961 -186 22 -735 25 -917 5 -590 -65 -1075 -206 -1575 -458
-469 -236 -792 -471 -1165 -847 -110 -111 -191 -191 -180 -177 11 14 -7 0 -40
-30 -113 -105 -359 -292 -451 -345 -16 -9 -58 -34 -94 -56 -100 -61 -351 -182
-487 -233 -830 -314 -1736 -285 -2547 80 -239 107 -491 262 -701 431 -60 48
-204 180 -320 293 -234 229 -375 353 -539 475 -650 481 -1358 760 -2186 862
-182 22 -753 25 -925 5 -626 -73 -1107 -216 -1610 -476 -451 -234 -751 -456
-1155 -852 -102 -100 -216 -208 -255 -241 -484 -410 -1078 -668 -1715 -747
-154 -19 -408 -35 -475 -30 -27 2 -117 9 -200 14 -615 45 -1216 270 -1720 644
-142 106 -247 199 -485 431 -198 193 -305 287 -465 407 -637 478 -1391 774
-2192 862 -193 22 -773 22 -963 1 -805 -89 -1564 -390 -2203 -873 -171 -129
-276 -221 -502 -442 -121 -118 -270 -255 -330 -303 -428 -344 -905 -568 -1429
-672 -438 -86 -845 -89 -1271 -9 -449 85 -860 253 -1235 504 -168 113 -316
238 -543 458 -463 449 -765 669 -1252 909 -427 210 -844 337 -1365 415 -144
21 -187 23 -595 23 -408 0 -451 -2 -595 -23 -531 -79 -925 -200 -1375 -422
-315 -155 -548 -303 -814 -516 -137 -110 -405 -354 -420 -383 -13 -24 -245
-233 -352 -317 -445 -350 -985 -582 -1559 -670 -127 -19 -482 -44 -550 -39
-30 3 -118 10 -195 15 -668 49 -1296 298 -1827 724 -58 47 -205 182 -325 298
-239 233 -351 332 -518 458 -605 455 -1305 742 -2080 852 -147 21 -196 23
-590 23 -358 0 -452 -3 -560 -18 -660 -90 -1216 -284 -1761 -614 -306 -185
-530 -363 -858 -681 -126 -123 -285 -268 -352 -322 -211 -170 -470 -330 -704
-435 -630 -284 -1334 -366 -2010 -234 -618 120 -1152 395 -1642 842 -65 59
-128 122 -142 140 -32 42 -264 254 -386 353 -651 528 -1465 865 -2317 958
-168 19 -750 22 -914 6 -747 -75 -1455 -331 -2069 -748 -245 -166 -417 -311
-712 -599 -270 -264 -438 -397 -693 -550 -388 -233 -872 -396 -1315 -442 -300
-32 -460 -32 -760 0 -452 47 -937 212 -1335 454 -251 153 -408 279 -690 555
-223 218 -365 343 -529 465 -655 484 -1396 775 -2196 860 -191 21 -763 20
-953 -1 -729 -80 -1411 -329 -2015 -736 -250 -169 -370 -269 -801 -671 -227
-212 -403 -347 -622 -479 -646 -389 -1424 -543 -2178 -432 -648 95 -1243 378
-1735 823 -55 49 -104 87 -109 84 -6 -3 -7 -1 -4 4 4 6 -27 42 -68 79 -42 38
-117 107 -168 154 -729 671 -1595 1068 -2564 1174 -193 22 -773 22 -963 1
-896 -99 -1733 -460 -2409 -1039 -59 -50 -198 -181 -311 -291 -113 -110 -239
-227 -280 -261 -447 -364 -926 -592 -1464 -699 -438 -86 -845 -89 -1271 -9
-449 85 -860 253 -1235 504 -168 113 -316 238 -543 458 -463 449 -765 669
-1252 909 -427 210 -844 337 -1365 415 -144 21 -187 23 -595 23 -408 0 -451
-2 -595 -23 -531 -79 -925 -200 -1375 -422 -315 -155 -548 -303 -814 -516
-137 -110 -405 -354 -420 -383 -13 -24 -245 -233 -352 -317 -445 -350 -985
-582 -1559 -670 -127 -19 -482 -44 -550 -39 -30 3 -118 10 -195 15 -668 49
-1296 298 -1827 724 -58 47 -205 182 -325 298 -239 233 -351 332 -518 458
-605 455 -1305 742 -2080 852 -147 21 -196 23 -590 23 -358 0 -452 -3 -560
-18 -660 -90 -1216 -284 -1761 -614 -306 -185 -530 -363 -858 -681 -126 -123
-285 -268 -352 -322 -211 -170 -470 -330 -704 -435 -630 -284 -1334 -366
-2010 -234 -618 120 -1152 395 -1642 842 -65 59 -128 122 -142 140 -32 42
-264 254 -386 353 -651 528 -1465 865 -2317 958 -168 19 -750 22 -914 6 -747
-75 -1455 -331 -2069 -748 -245 -166 -417 -311 -712 -599 -113 -111 -251 -237
-306 -281 -441 -351 -921 -572 -1467 -676 -408 -77 -822 -77 -1230 0 -479 91
-917 277 -1309 556 -154 111 -265 207 -481 418 -223 218 -365 343 -529 465
-655 484 -1396 775 -2196 860 -178 19 -794 18 -965 -1z m58835 -2019 c35 -36
62 -65 59 -65 -2 0 -34 29 -69 65 -35 36 -62 65 -59 65 2 0 34 -29 69 -65z
m33635 -15 c38 -38 67 -70 64 -70 -2 0 -36 32 -74 70 -38 39 -67 70 -64 70 2
0 36 -31 74 -70z m-22434 23 c13 -16 12 -17 -3 -4 -10 7 -18 15 -18 17 0 8 8
3 21 -13z m55 -55 l29 -33 -32 29 c-18 17 -33 31 -33 33 0 8 8 1 36 -29z"/>
</g>
</svg>
